<svg xmlns="http://www.w3.org/2000/svg" viewBox="0 0 256 256">
  <defs>
    <linearGradient id="grad1" x1="0%" y1="0%" x2="100%" y2="100%">
      <stop offset="0%" style="stop-color:#00d4ff;stop-opacity:1" />
      <stop offset="100%" style="stop-color:#a855f7;stop-opacity:1" />
    </linearGradient>
    <linearGradient id="glow" x1="0%" y1="0%" x2="100%" y2="100%">
      <stop offset="0%" style="stop-color:#00d4ff;stop-opacity:0.6" />
      <stop offset="100%" style="stop-color:#a855f7;stop-opacity:0.6" />
    </linearGradient>
  </defs>
  <rect width="256" height="256" fill="#0a0a0a"/>
  <path d="M 180 80 L 200 100 L 180 120 L 160 100 Z" fill="url(#glow)" opacity="0.4"/>
  <path d="M 200 100 L 220 120 L 200 140 L 180 120 Z" fill="url(#glow)" opacity="0.3"/>
  <path d="M 60 140 L 80 160 L 60 180 L 40 160 Z" fill="url(#glow)" opacity="0.3"/>
  <path d="M 50 70 L 90 70 L 90 186 L 70 186 L 70 90 L 50 90 Z" fill="url(#grad1)"/>
  <path d="M 110 70 L 180 70 L 180 90 L 130 90 L 130 118 L 170 118 L 170 138 L 130 138 L 130 166 L 180 166 L 180 186 L 110 186 Z" fill="url(#grad1)"/>
  <path d="M 165 75 L 210 120 L 195 135 L 150 90 Z" fill="url(#grad1)" opacity="0.7"/>
  <path d="M 175 85 L 215 125 L 205 135 L 165 95 Z" fill="url(#grad1)" opacity="0.4"/>
</svg>